<svg width="24" height="20" viewBox="0 0 24 20" fill="none" xmlns="http://www.w3.org/2000/svg">
<path d="M21.7675 14.1V16.6C21.7687 16.8321 21.7122 17.0618 21.6018 17.2745C21.4914 17.4871 21.3295 17.678 21.1265 17.8349C20.9234 17.9918 20.6837 18.1112 20.4226 18.1856C20.1616 18.2599 19.885 18.2876 19.6106 18.2667C16.5659 17.988 13.6413 17.1118 11.0718 15.7083C8.68112 14.4289 6.65427 12.7218 5.13516 10.7083C3.463 8.53433 2.42237 6.05916 2.0976 3.48333C2.07287 3.25288 2.10539 3.02063 2.19308 2.80135C2.28077 2.58207 2.42171 2.38057 2.60693 2.20968C2.79214 2.03879 3.01758 1.90225 3.26888 1.80876C3.52018 1.71527 3.79185 1.66688 4.06657 1.66666H7.03487C7.51505 1.66268 7.98056 1.80589 8.34465 2.0696C8.70873 2.33332 8.94653 2.69953 9.01374 3.09999C9.13902 3.90005 9.37137 4.6856 9.70634 5.44166C9.83946 5.73993 9.86827 6.06409 9.78936 6.37573C9.71045 6.68737 9.52712 6.97342 9.2611 7.19999L8.00452 8.25833C9.41303 10.3446 11.464 12.072 13.9411 13.2583L15.1977 12.2C15.4667 11.9759 15.8063 11.8215 16.1764 11.7551C16.5464 11.6886 16.9313 11.7129 17.2854 11.825C18.1831 12.1071 19.1158 12.3028 20.0657 12.4083C20.5463 12.4654 20.9853 12.6693 21.2991 12.9812C21.6128 13.2931 21.7796 13.6913 21.7675 14.1Z" stroke="black" stroke-linecap="round" stroke-linejoin="round"/>
</svg>
